<svg width="64" height="64" viewBox="0 0 64 64" fill="none" xmlns="http://www.w3.org/2000/svg">
<path d="M18.375 60.75V57.1985C18.375 56.131 17.625 55.2586 16.5 55.2039V52.1205C17.3402 51.9662 18.1001 51.5229 18.6479 50.8674C19.1958 50.212 19.4972 49.3855 19.5 48.5312V45.625H28.9324C30.0035 45.625 30.875 44.6914 30.875 43.6203V18.3202C30.8744 17.805 30.6696 17.311 30.3055 16.9464C29.9414 16.5818 29.4476 16.3763 28.9324 16.375H13.4289C13.1744 16.3759 12.9226 16.427 12.6879 16.5253C12.4532 16.6236 12.2402 16.7672 12.061 16.948C11.8819 17.1287 11.7401 17.343 11.6438 17.5785C11.5476 17.8141 11.4987 18.0663 11.5 18.3207V31.3277L4.77025 36.8954C4.7505 36.9117 4.71263 36.9291 4.69525 36.9475C4.01444 37.6298 3.62991 38.5529 3.625 39.5168V55.25H3.25C2.99019 55.2446 2.7319 55.2909 2.49016 55.3862C2.24842 55.4816 2.02807 55.6241 1.84194 55.8054C1.6558 55.9867 1.50761 56.2033 1.40598 56.4425C1.30436 56.6816 1.25134 56.9386 1.25 57.1985V60.75C1.25063 61.2802 1.46154 61.7886 1.83648 62.1635C2.21142 62.5385 2.71976 62.7494 3.25 62.75H16.425C16.685 62.7488 16.9421 62.6958 17.1814 62.5942C17.4207 62.4927 17.6374 62.3445 17.8188 62.1584C18.0003 61.9722 18.143 61.7519 18.2384 61.5101C18.3339 61.2683 18.3803 61.0099 18.375 60.75ZM13 18.3207C12.9985 18.2632 13.0084 18.206 13.0292 18.1523C13.05 18.0986 13.0813 18.0496 13.1212 18.0082C13.1611 17.9667 13.2089 17.9336 13.2617 17.9107C13.3145 17.8878 13.3713 17.8757 13.4289 17.875H28.9324C29.05 17.8759 29.1626 17.9232 29.2455 18.0067C29.3284 18.0902 29.375 18.2031 29.375 18.3207V43.6208C29.375 43.8647 29.1764 44.1255 28.9324 44.1255H13.7199C13.6568 43.9155 13.6211 43.6982 13.6138 43.479L13.6349 43.0975L16.5264 40.1984C17.0764 39.6463 17.3852 38.8988 17.3852 38.1195C17.3852 37.3402 17.0764 36.5927 16.5264 36.0406L16.0107 35.5231C15.8822 35.393 15.7101 35.3151 15.5275 35.3042C15.3449 35.2934 15.1648 35.3504 15.0218 35.4644L13 37.0691V18.3207ZM5.125 39.5168C5.132 38.9583 5.3534 38.424 5.74337 38.0243L11.5 33.275V38.2565L8.01762 41.0089C7.93994 41.0695 7.875 41.1449 7.82652 41.2307C7.77804 41.3165 7.74698 41.411 7.73513 41.5088C7.72328 41.6067 7.73087 41.7059 7.75746 41.8008C7.78404 41.8956 7.82911 41.9843 7.89007 42.0618C7.95103 42.1392 8.02668 42.2038 8.11268 42.2519C8.19868 42.3001 8.29334 42.3307 8.39121 42.3421C8.48909 42.3536 8.58827 42.3456 8.68304 42.3186C8.77782 42.2916 8.86633 42.2462 8.9435 42.1849L15.4231 37.0535L15.466 37.0969C15.7351 37.3667 15.8862 37.7321 15.8862 38.1132C15.8862 38.4942 15.7351 38.8597 15.466 39.1295L12.3724 42.2228C12.2421 42.3529 12.1643 42.5264 12.1538 42.7103L12.1147 43.3853C12.1139 43.3997 12.1135 43.4141 12.1135 43.4285C12.1166 43.9684 12.2395 44.5008 12.4733 44.9875C12.706 45.4848 12.8073 46.0336 12.7674 46.5812C12.7275 47.1289 12.5477 47.6572 12.2452 48.1155C12.1649 48.2391 12.1231 48.3838 12.125 48.5312V49.9894C12.125 50.1883 12.204 50.3791 12.3447 50.5197C12.4853 50.6604 12.6761 50.7394 12.875 50.7394C13.0739 50.7394 13.2647 50.6604 13.4053 50.5197C13.546 50.3791 13.625 50.1883 13.625 49.9894V48.7474C14.125 47.7863 14.3875 46.625 14.2061 45.625H18V48.5312C17.9899 49.1099 17.7527 49.6613 17.3396 50.0666C16.9265 50.4719 16.3706 50.6985 15.7919 50.6976C15.5886 50.6963 15.3927 50.7736 15.2451 50.9133C15.0975 51.0531 15.0097 51.2446 15 51.4476V55.25H5.125V39.5168ZM3.25 61.25C3.11739 61.25 2.99021 61.1973 2.89645 61.1036C2.80268 61.0098 2.75 60.8826 2.75 60.75V57.25C2.75 57.1174 2.80268 56.9902 2.89645 56.8964C2.99021 56.8027 3.11739 56.75 3.25 56.75H16.375C16.5076 56.75 16.6348 56.8027 16.7286 56.8964C16.8223 56.9902 16.875 57.1174 16.875 57.25V60.75C16.875 60.8826 16.8223 61.0098 16.7286 61.1036C16.6348 61.1973 16.5076 61.25 16.375 61.25H3.25Z" fill="url(#paint0_linear_891_3195)"/>
<path d="M5.17131 57.0649C4.77753 57.0569 4.3903 57.1664 4.05899 57.3794C3.72768 57.5924 3.46731 57.8992 3.31108 58.2607C3.15486 58.6223 3.10985 59.0222 3.18181 59.4094C3.25376 59.7967 3.43941 60.1537 3.71509 60.435C3.99077 60.7163 4.34398 60.9091 4.72968 60.9889C5.11539 61.0686 5.51611 61.0317 5.88074 60.8828C6.24538 60.7339 6.55741 60.4798 6.77704 60.1529C6.99667 59.8259 7.11396 59.441 7.11394 59.0471C7.11854 58.5268 6.91661 58.026 6.55244 57.6544C6.18826 57.2828 5.69158 57.0708 5.17131 57.0649ZM5.17131 59.5295C5.07415 59.5378 4.97673 59.5167 4.89181 59.4687C4.80689 59.4208 4.73843 59.3483 4.69539 59.2608C4.65235 59.1733 4.63674 59.0748 4.65061 58.9783C4.66448 58.8818 4.70717 58.7917 4.7731 58.7198C4.83904 58.648 4.92513 58.5977 5.02012 58.5756C5.1151 58.5535 5.21454 58.5606 5.30542 58.596C5.3963 58.6314 5.47437 58.6934 5.52942 58.7739C5.58447 58.8543 5.61393 58.9496 5.61394 59.0471C5.61886 59.1697 5.57506 59.2892 5.49213 59.3796C5.40919 59.47 5.29385 59.5239 5.17131 59.5295ZM21.1803 37.2147C22.5079 37.2147 23.8057 36.8211 24.9096 36.0835C26.0134 35.3459 26.8738 34.2976 27.3819 33.071C27.8899 31.8445 28.0228 30.4948 27.7638 29.1927C27.5048 27.8906 26.8655 26.6945 25.9268 25.7558C24.988 24.817 23.792 24.1777 22.4899 23.9187C21.1878 23.6597 19.8381 23.7926 18.6116 24.3007C17.385 24.8087 16.3367 25.6691 15.5991 26.773C14.8615 27.8768 14.4678 29.1746 14.4678 30.5022C14.47 32.2818 15.1779 33.9879 16.4362 35.2463C17.6946 36.5047 19.4007 37.2126 21.1803 37.2147ZM21.1803 25.2889C22.2112 25.2889 23.219 25.5946 24.0762 26.1673C24.9334 26.7401 25.6015 27.5542 25.996 28.5066C26.3906 29.4591 26.4938 30.5071 26.2927 31.5183C26.0915 32.5294 25.5951 33.4582 24.8661 34.1872C24.1371 34.9161 23.2083 35.4126 22.1972 35.6137C21.1861 35.8148 20.138 35.7116 19.1856 35.3171C18.2331 34.9226 17.419 34.2545 16.8463 33.3973C16.2735 32.5401 15.9678 31.5323 15.9678 30.5014C15.9695 29.1194 16.5192 27.7946 17.4964 26.8174C18.4736 25.8403 19.7984 25.2906 21.1803 25.2889Z" fill="url(#paint1_linear_891_3195)"/>
<path d="M22.1456 35H22.7374C22.9363 35 23.1271 34.921 23.2678 34.7803C23.4084 34.6397 23.4874 34.4489 23.4874 34.25C23.4874 34.0511 23.4084 33.8603 23.2678 33.7197C23.1271 33.579 22.9363 33.5 22.7374 33.5H22.1456C21.8046 33.5071 21.4659 33.4443 21.1502 33.3153C20.8346 33.1863 20.5488 32.9939 20.3104 32.75H22.0249C22.2238 32.75 22.4146 32.671 22.5553 32.5303C22.6959 32.3897 22.7749 32.1989 22.7749 32C22.7749 31.8011 22.6959 31.6103 22.5553 31.4697C22.4146 31.329 22.2238 31.25 22.0249 31.25H19.4863C19.4527 31.0855 19.4381 30.9178 19.4427 30.75H22.0249C22.2238 30.75 22.4146 30.671 22.5553 30.5303C22.6959 30.3897 22.7749 30.1989 22.7749 30C22.7749 29.8011 22.6959 29.6103 22.5553 29.4697C22.4146 29.329 22.2238 29.25 22.0249 29.25H19.8853C20.3689 28.5 21.2012 28.125 22.1456 28.125H22.7374C22.9363 28.125 23.1271 28.046 23.2678 27.9053C23.4084 27.7647 23.4874 27.5739 23.4874 27.375C23.4874 27.1761 23.4084 26.9853 23.2678 26.8447C23.1271 26.704 22.9363 26.625 22.7374 26.625H22.1456C21.3039 26.6245 20.4809 26.8736 19.7808 27.3409C19.0807 27.8081 18.5349 28.4725 18.2124 29.25H17.4141C17.2152 29.25 17.0244 29.329 16.8837 29.4697C16.7431 29.6103 16.6641 29.8011 16.6641 30C16.6641 30.1989 16.7431 30.3897 16.8837 30.5303C17.0244 30.671 17.2152 30.75 17.4141 30.75H17.9429C17.94 30.9171 17.9494 31.0842 17.9711 31.25H17.4141C17.2152 31.25 17.0244 31.329 16.8837 31.4697C16.7431 31.6103 16.6641 31.8011 16.6641 32C16.6641 32.1989 16.7431 32.3897 16.8837 32.5303C17.0244 32.671 17.2152 32.75 17.4141 32.75H18.4406C18.789 33.4315 19.32 34.0027 19.9742 34.4C20.6284 34.7973 21.3802 35.005 22.1456 35ZM60.7499 1.25H47.5749C47.315 1.25124 47.0579 1.30418 46.8186 1.40576C46.5793 1.50733 46.3626 1.65549 46.1811 1.84163C45.9996 2.02776 45.857 2.24814 45.7615 2.48993C45.666 2.73172 45.6196 2.99009 45.6249 3.25V6.8015C45.6249 7.869 46.3749 8.74138 47.4999 8.79613V11.8795C46.6597 12.0338 45.8999 12.4771 45.352 13.1326C44.8041 13.788 44.5027 14.6145 44.4999 15.4688V18.375H35.0676C33.9964 18.375 33.1249 19.3086 33.1249 20.3797V45.6797C33.1256 46.195 33.3304 46.689 33.6945 47.0536C34.0586 47.4182 34.5523 47.6237 35.0676 47.625H50.5711C50.8255 47.6241 51.0773 47.573 51.312 47.4747C51.5467 47.3764 51.7598 47.2327 51.9389 47.052C52.1181 46.8713 52.2598 46.6571 52.3561 46.4215C52.4524 46.1859 52.5012 45.9337 52.4999 45.6792V32.6722L59.2297 27.1046C59.2494 27.0883 59.2873 27.0709 59.3047 27.0525C59.9855 26.3702 60.37 25.4471 60.3749 24.4832V8.75H60.7499C61.0097 8.75544 61.268 8.70914 61.5098 8.61379C61.7515 8.51843 61.9719 8.37594 62.158 8.1946C62.3441 8.01326 62.4923 7.7967 62.594 7.55753C62.6956 7.31836 62.7486 7.06136 62.7499 6.8015V3.25C62.7493 2.71976 62.5384 2.21142 62.1635 1.83648C61.7885 1.46154 61.2802 1.25063 60.7499 1.25ZM50.9999 45.6792C51.0014 45.7368 50.9915 45.794 50.9707 45.8477C50.9499 45.9014 50.9186 45.9504 50.8787 45.9918C50.8388 46.0333 50.7911 46.0664 50.7383 46.0893C50.6854 46.1122 50.6286 46.1243 50.5711 46.125H35.0676C34.9499 46.1241 34.8373 46.0768 34.7544 45.9933C34.6715 45.9098 34.625 45.7969 34.6249 45.6792V20.3792C34.6249 20.1353 34.8236 19.8745 35.0676 19.8745H50.2801C50.3432 20.0845 50.3788 20.3018 50.3862 20.521L50.3651 20.9025L47.4737 23.8021C46.9237 24.3542 46.6148 25.1017 46.6148 25.881C46.6148 26.6603 46.9237 27.4078 47.4737 27.9599L47.9893 28.4774C48.0589 28.5473 48.1415 28.6027 48.2326 28.6406C48.3236 28.6784 48.4212 28.698 48.5198 28.698C48.6866 28.6983 48.8485 28.6413 48.9783 28.5365L50.9999 26.9309V45.6792ZM58.8749 24.4832C58.8679 25.0417 58.6465 25.576 58.2566 25.9757L52.4999 30.725V25.7431L55.9823 22.9911C56.06 22.9305 56.1249 22.8551 56.1734 22.7693C56.2219 22.6835 56.2529 22.589 56.2648 22.4912C56.2767 22.3933 56.2691 22.2941 56.2425 22.1992C56.2159 22.1044 56.1708 22.0157 56.1099 21.9382C56.0489 21.8608 55.9733 21.7962 55.8873 21.7481C55.8013 21.6999 55.7066 21.6693 55.6087 21.6579C55.5108 21.6464 55.4117 21.6544 55.3169 21.6814C55.2221 21.7084 55.1336 21.7538 55.0564 21.8151L48.5768 26.9465L48.5341 26.9031C48.2649 26.6334 48.1138 26.2679 48.1138 25.8868C48.1138 25.5058 48.2649 25.1403 48.5341 24.8705L51.6276 21.7773C51.7578 21.6471 51.8356 21.4736 51.8462 21.2897L51.8852 20.6147C51.886 20.6003 51.8865 20.5859 51.8864 20.5715C51.8834 20.0314 51.7605 19.4987 51.5267 19.0119C51.2939 18.5145 51.1926 17.9658 51.2326 17.4181C51.2725 16.8705 51.4522 16.3422 51.7547 15.8839C51.8349 15.7604 51.8768 15.616 51.8749 15.4688V14.0106C51.8749 13.8117 51.7959 13.6209 51.6553 13.4803C51.5146 13.3396 51.3239 13.2606 51.1249 13.2606C50.926 13.2606 50.7353 13.3396 50.5946 13.4803C50.454 13.6209 50.3749 13.8117 50.3749 14.0106V15.2526C49.8749 16.2138 49.6124 17.375 49.7938 18.375H45.9999V15.4688C46.0101 14.8901 46.2473 14.3387 46.6604 13.9334C47.0735 13.5281 47.6294 13.3015 48.2081 13.3024C48.4113 13.3037 48.6073 13.2264 48.7549 13.0867C48.9024 12.9469 48.9903 12.7554 48.9999 12.5524V8.75H58.8749V24.4832ZM61.2499 6.75C61.2499 6.88261 61.1973 7.00979 61.1035 7.10355C61.0097 7.19732 60.8825 7.25 60.7499 7.25H47.6249C47.4923 7.25 47.3652 7.19732 47.2714 7.10355C47.1776 7.00979 47.1249 6.88261 47.1249 6.75V3.25C47.1249 3.11739 47.1776 2.99021 47.2714 2.89645C47.3652 2.80268 47.4923 2.75 47.6249 2.75H60.7499C60.8825 2.75 61.0097 2.80268 61.1035 2.89645C61.1973 2.99021 61.2499 3.11739 61.2499 3.25V6.75Z" fill="black"/>
<path d="M22.1456 35H22.7374C22.9363 35 23.1271 34.921 23.2678 34.7803C23.4084 34.6397 23.4874 34.4489 23.4874 34.25C23.4874 34.0511 23.4084 33.8603 23.2678 33.7197C23.1271 33.579 22.9363 33.5 22.7374 33.5H22.1456C21.8046 33.5071 21.4659 33.4443 21.1502 33.3153C20.8346 33.1863 20.5488 32.9939 20.3104 32.75H22.0249C22.2238 32.75 22.4146 32.671 22.5553 32.5303C22.6959 32.3897 22.7749 32.1989 22.7749 32C22.7749 31.8011 22.6959 31.6103 22.5553 31.4697C22.4146 31.329 22.2238 31.25 22.0249 31.25H19.4863C19.4527 31.0855 19.4381 30.9178 19.4427 30.75H22.0249C22.2238 30.75 22.4146 30.671 22.5553 30.5303C22.6959 30.3897 22.7749 30.1989 22.7749 30C22.7749 29.8011 22.6959 29.6103 22.5553 29.4697C22.4146 29.329 22.2238 29.25 22.0249 29.25H19.8853C20.3689 28.5 21.2012 28.125 22.1456 28.125H22.7374C22.9363 28.125 23.1271 28.046 23.2678 27.9053C23.4084 27.7647 23.4874 27.5739 23.4874 27.375C23.4874 27.1761 23.4084 26.9853 23.2678 26.8447C23.1271 26.704 22.9363 26.625 22.7374 26.625H22.1456C21.3039 26.6245 20.4809 26.8736 19.7808 27.3409C19.0807 27.8081 18.5349 28.4725 18.2124 29.25H17.4141C17.2152 29.25 17.0244 29.329 16.8837 29.4697C16.7431 29.6103 16.6641 29.8011 16.6641 30C16.6641 30.1989 16.7431 30.3897 16.8837 30.5303C17.0244 30.671 17.2152 30.75 17.4141 30.75H17.9429C17.94 30.9171 17.9494 31.0842 17.9711 31.25H17.4141C17.2152 31.25 17.0244 31.329 16.8837 31.4697C16.7431 31.6103 16.6641 31.8011 16.6641 32C16.6641 32.1989 16.7431 32.3897 16.8837 32.5303C17.0244 32.671 17.2152 32.75 17.4141 32.75H18.4406C18.789 33.4315 19.32 34.0027 19.9742 34.4C20.6284 34.7973 21.3802 35.005 22.1456 35ZM60.7499 1.25H47.5749C47.315 1.25124 47.0579 1.30418 46.8186 1.40576C46.5793 1.50733 46.3626 1.65549 46.1811 1.84163C45.9996 2.02776 45.857 2.24814 45.7615 2.48993C45.666 2.73172 45.6196 2.99009 45.6249 3.25V6.8015C45.6249 7.869 46.3749 8.74138 47.4999 8.79613V11.8795C46.6597 12.0338 45.8999 12.4771 45.352 13.1326C44.8041 13.788 44.5027 14.6145 44.4999 15.4688V18.375H35.0676C33.9964 18.375 33.1249 19.3086 33.1249 20.3797V45.6797C33.1256 46.195 33.3304 46.689 33.6945 47.0536C34.0586 47.4182 34.5523 47.6237 35.0676 47.625H50.5711C50.8255 47.6241 51.0773 47.573 51.312 47.4747C51.5467 47.3764 51.7598 47.2327 51.9389 47.052C52.1181 46.8713 52.2598 46.6571 52.3561 46.4215C52.4524 46.1859 52.5012 45.9337 52.4999 45.6792V32.6722L59.2297 27.1046C59.2494 27.0883 59.2873 27.0709 59.3047 27.0525C59.9855 26.3702 60.37 25.4471 60.3749 24.4832V8.75H60.7499C61.0097 8.75544 61.268 8.70914 61.5098 8.61379C61.7515 8.51843 61.9719 8.37594 62.158 8.1946C62.3441 8.01326 62.4923 7.7967 62.594 7.55753C62.6956 7.31836 62.7486 7.06136 62.7499 6.8015V3.25C62.7493 2.71976 62.5384 2.21142 62.1635 1.83648C61.7885 1.46154 61.2802 1.25063 60.7499 1.25ZM50.9999 45.6792C51.0014 45.7368 50.9915 45.794 50.9707 45.8477C50.9499 45.9014 50.9186 45.9504 50.8787 45.9918C50.8388 46.0333 50.7911 46.0664 50.7383 46.0893C50.6854 46.1122 50.6286 46.1243 50.5711 46.125H35.0676C34.9499 46.1241 34.8373 46.0768 34.7544 45.9933C34.6715 45.9098 34.625 45.7969 34.6249 45.6792V20.3792C34.6249 20.1353 34.8236 19.8745 35.0676 19.8745H50.2801C50.3432 20.0845 50.3788 20.3018 50.3862 20.521L50.3651 20.9025L47.4737 23.8021C46.9237 24.3542 46.6148 25.1017 46.6148 25.881C46.6148 26.6603 46.9237 27.4078 47.4737 27.9599L47.9893 28.4774C48.0589 28.5473 48.1415 28.6027 48.2326 28.6406C48.3236 28.6784 48.4212 28.698 48.5198 28.698C48.6866 28.6983 48.8485 28.6413 48.9783 28.5365L50.9999 26.9309V45.6792ZM58.8749 24.4832C58.8679 25.0417 58.6465 25.576 58.2566 25.9757L52.4999 30.725V25.7431L55.9823 22.9911C56.06 22.9305 56.1249 22.8551 56.1734 22.7693C56.2219 22.6835 56.2529 22.589 56.2648 22.4912C56.2767 22.3933 56.2691 22.2941 56.2425 22.1992C56.2159 22.1044 56.1708 22.0157 56.1099 21.9382C56.0489 21.8608 55.9733 21.7962 55.8873 21.7481C55.8013 21.6999 55.7066 21.6693 55.6087 21.6579C55.5108 21.6464 55.4117 21.6544 55.3169 21.6814C55.2221 21.7084 55.1336 21.7538 55.0564 21.8151L48.5768 26.9465L48.5341 26.9031C48.2649 26.6334 48.1138 26.2679 48.1138 25.8868C48.1138 25.5058 48.2649 25.1403 48.5341 24.8705L51.6276 21.7773C51.7578 21.6471 51.8356 21.4736 51.8462 21.2897L51.8852 20.6147C51.886 20.6003 51.8865 20.5859 51.8864 20.5715C51.8834 20.0314 51.7605 19.4987 51.5267 19.0119C51.2939 18.5145 51.1926 17.9658 51.2326 17.4181C51.2725 16.8705 51.4522 16.3422 51.7547 15.8839C51.8349 15.7604 51.8768 15.616 51.8749 15.4688V14.0106C51.8749 13.8117 51.7959 13.6209 51.6553 13.4803C51.5146 13.3396 51.3239 13.2606 51.1249 13.2606C50.926 13.2606 50.7353 13.3396 50.5946 13.4803C50.454 13.6209 50.3749 13.8117 50.3749 14.0106V15.2526C49.8749 16.2138 49.6124 17.375 49.7938 18.375H45.9999V15.4688C46.0101 14.8901 46.2473 14.3387 46.6604 13.9334C47.0735 13.5281 47.6294 13.3015 48.2081 13.3024C48.4113 13.3037 48.6073 13.2264 48.7549 13.0867C48.9024 12.9469 48.9903 12.7554 48.9999 12.5524V8.75H58.8749V24.4832ZM61.2499 6.75C61.2499 6.88261 61.1973 7.00979 61.1035 7.10355C61.0097 7.19732 60.8825 7.25 60.7499 7.25H47.6249C47.4923 7.25 47.3652 7.19732 47.2714 7.10355C47.1776 7.00979 47.1249 6.88261 47.1249 6.75V3.25C47.1249 3.11739 47.1776 2.99021 47.2714 2.89645C47.3652 2.80268 47.4923 2.75 47.6249 2.75H60.7499C60.8825 2.75 61.0097 2.80268 61.1035 2.89645C61.1973 2.99021 61.2499 3.11739 61.2499 3.25V6.75Z" fill="url(#paint2_linear_891_3195)"/>
<path d="M58.8289 2.9705C58.4351 2.96251 58.0479 3.07197 57.7166 3.28494C57.3853 3.4979 57.1249 3.80472 56.9686 4.16627C56.8124 4.52781 56.7673 4.9277 56.8393 5.31494C56.9112 5.70218 57.0968 6.05922 57.3725 6.34054C57.6481 6.62186 58.0013 6.81471 58.387 6.89449C58.7727 6.97427 59.1735 6.93737 59.5381 6.7885C59.9028 6.63963 60.2148 6.38553 60.4345 6.0586C60.6541 5.73168 60.7714 5.34674 60.7714 4.95288C60.7761 4.4326 60.5742 3.93172 60.21 3.5601C59.8459 3.18847 59.3492 2.97644 58.8289 2.9705ZM58.8289 5.43513C58.7318 5.44351 58.6343 5.42235 58.5494 5.37442C58.4644 5.32649 58.396 5.25403 58.3529 5.16651C58.3098 5.079 58.2942 4.98053 58.3081 4.88399C58.3219 4.78745 58.3646 4.69735 58.4306 4.62548C58.4965 4.55362 58.5826 4.50335 58.6776 4.48126C58.7726 4.45916 58.8721 4.46627 58.963 4.50166C59.0538 4.53705 59.1319 4.59906 59.187 4.67957C59.242 4.76009 59.2714 4.85535 59.2714 4.95288C59.2763 5.07541 59.2325 5.19489 59.1496 5.28524C59.0667 5.3756 58.9514 5.42948 58.8289 5.43513ZM42.8199 26.7853C41.4923 26.7853 40.1945 27.1789 39.0907 27.9165C37.9868 28.6541 37.1264 29.7024 36.6184 30.929C36.1103 32.1555 35.9774 33.5052 36.2364 34.8073C36.4954 36.1094 37.1347 37.3054 38.0735 38.2442C39.0122 39.183 40.2083 39.8223 41.5104 40.0813C42.8125 40.3403 44.1621 40.2073 45.3887 39.6993C46.6152 39.1912 47.6636 38.3309 48.4012 37.227C49.1387 36.1231 49.5324 34.8254 49.5324 33.4978C49.5303 31.7181 48.8224 30.012 47.564 28.7537C46.3056 27.4953 44.5995 26.7874 42.8199 26.7853ZM42.8199 38.7111C41.789 38.7111 40.7812 38.4054 39.924 37.8327C39.0668 37.2599 38.3987 36.4458 38.0042 35.4934C37.6097 34.5409 37.5065 33.4928 37.7076 32.4817C37.9087 31.4706 38.4052 30.5418 39.1341 29.8128C39.8631 29.0839 40.7919 28.5874 41.803 28.3863C42.8141 28.1852 43.8622 28.2884 44.8147 28.6829C45.7671 29.0774 46.5812 29.7455 47.154 30.6027C47.7267 31.4599 48.0324 32.4677 48.0324 33.4986C48.0307 34.8806 47.481 36.2054 46.5039 37.1826C45.5267 38.1597 44.2018 38.7094 42.8199 38.7111Z" fill="url(#paint3_linear_891_3195)"/>
<path d="M45.6131 29.925C45.454 29.8056 45.254 29.7544 45.0571 29.7825C44.8601 29.8107 44.6825 29.9159 44.5631 30.075L42.8194 32.4L41.0755 30.075C40.9566 29.9159 40.7793 29.8105 40.5826 29.7821C40.386 29.7537 40.1861 29.8045 40.027 29.9235C39.8679 30.0424 39.7625 30.2197 39.7341 30.4164C39.7057 30.613 39.7565 30.8129 39.8755 30.972L42.0552 33.875H41.4478C41.2488 33.875 41.0581 33.954 40.9174 34.0947C40.7768 34.2353 40.6978 34.4261 40.6978 34.625C40.6978 34.8239 40.7768 35.0147 40.9174 35.1553C41.0581 35.296 41.2488 35.375 41.4478 35.375H42.125V35.625H41.4478C41.2488 35.625 41.0581 35.704 40.9174 35.8447C40.7768 35.9853 40.6978 36.1761 40.6978 36.375C40.6978 36.5739 40.7768 36.7647 40.9174 36.9053C41.0581 37.046 41.2488 37.125 41.4478 37.125H42.125V37.675C42.125 37.8739 42.204 38.0647 42.3447 38.2053C42.4853 38.346 42.6761 38.425 42.875 38.425C43.0739 38.425 43.2647 38.346 43.4053 38.2053C43.546 38.0647 43.625 37.8739 43.625 37.675V37.125H44.1911C44.39 37.125 44.5808 37.046 44.7215 36.9053C44.8621 36.7647 44.9411 36.5739 44.9411 36.375C44.9411 36.1761 44.8621 35.9853 44.7215 35.8447C44.5808 35.704 44.39 35.625 44.1911 35.625H43.625V35.375H44.1911C44.39 35.375 44.5808 35.296 44.7215 35.1553C44.8621 35.0147 44.9411 34.8239 44.9411 34.625C44.9411 34.4261 44.8621 34.2353 44.7215 34.0947C44.5808 33.954 44.39 33.875 44.1911 33.875H43.5836L45.7631 30.972C45.8222 30.8935 45.8653 30.8041 45.8897 30.7089C45.9142 30.6137 45.9196 30.5146 45.9056 30.4173C45.8917 30.32 45.8587 30.2265 45.8085 30.142C45.7583 30.0575 45.6919 29.9838 45.6131 29.925ZM41.25 61.9136C41.25 62.1125 41.329 62.3033 41.4697 62.444C41.6103 62.5846 41.8011 62.6636 42 62.6636C42.1989 62.6636 42.3897 62.5846 42.5303 62.444C42.671 62.3033 42.75 62.1125 42.75 61.9136V57.2875C42.75 57.0886 42.671 56.8978 42.5303 56.7572C42.3897 56.6165 42.1989 56.5375 42 56.5375C41.8011 56.5375 41.6103 56.6165 41.4697 56.7572C41.329 56.8978 41.25 57.0886 41.25 57.2875V61.9136ZM42 54.8987C42.1989 54.8987 42.3897 54.8197 42.5303 54.6791C42.671 54.5384 42.75 54.3477 42.75 54.1487V52.8862C42.75 52.6873 42.671 52.4966 42.5303 52.3559C42.3897 52.2153 42.1989 52.1362 42 52.1362C41.8011 52.1362 41.6103 52.2153 41.4697 52.3559C41.329 52.4966 41.25 52.6873 41.25 52.8862V54.1487C41.25 54.3477 41.329 54.5384 41.4697 54.6791C41.6103 54.8197 41.8011 54.8987 42 54.8987ZM47.5 59.4136C47.5 59.6125 47.579 59.8033 47.7197 59.944C47.8603 60.0846 48.0511 60.1636 48.25 60.1636C48.4489 60.1636 48.6397 60.0846 48.7803 59.944C48.921 59.8033 49 59.6125 49 59.4136V56.0375C49 55.8386 48.921 55.6478 48.7803 55.5072C48.6397 55.3665 48.4489 55.2875 48.25 55.2875C48.0511 55.2875 47.8603 55.3665 47.7197 55.5072C47.579 55.6478 47.5 55.8386 47.5 56.0375V59.4136ZM48.25 53.6487C48.4489 53.6487 48.6397 53.5697 48.7803 53.4291C48.921 53.2884 49 53.0977 49 52.8987V50.3862C49 50.1873 48.921 49.9966 48.7803 49.8559C48.6397 49.7153 48.4489 49.6362 48.25 49.6362C48.0511 49.6362 47.8603 49.7153 47.7197 49.8559C47.579 49.9966 47.5 50.1873 47.5 50.3862V52.8987C47.5 53.0977 47.579 53.2884 47.7197 53.4291C47.8603 53.5697 48.0511 53.6487 48.25 53.6487ZM35 59.4136C35 59.6125 35.079 59.8033 35.2197 59.944C35.3603 60.0846 35.5511 60.1636 35.75 60.1636C35.9489 60.1636 36.1397 60.0846 36.2803 59.944C36.421 59.8033 36.5 59.6125 36.5 59.4136V57.0375C36.5 56.8386 36.421 56.6478 36.2803 56.5072C36.1397 56.3665 35.9489 56.2875 35.75 56.2875C35.5511 56.2875 35.3603 56.3665 35.2197 56.5072C35.079 56.6478 35 56.8386 35 57.0375V59.4136ZM35.75 55.1487C35.9489 55.1487 36.1397 55.0697 36.2803 54.9291C36.421 54.7884 36.5 54.5977 36.5 54.3987V50.3862C36.5 50.1873 36.421 49.9966 36.2803 49.8559C36.1397 49.7153 35.9489 49.6362 35.75 49.6362C35.5511 49.6362 35.3603 49.7153 35.2197 49.8559C35.079 49.9966 35 50.1873 35 50.3862V54.3987C35 54.5977 35.079 54.7884 35.2197 54.9291C35.3603 55.0697 35.5511 55.1487 35.75 55.1487ZM21.625 2.81012C21.625 2.61121 21.546 2.42044 21.4053 2.27979C21.2647 2.13914 21.0739 2.06012 20.875 2.06012C20.6761 2.06012 20.4853 2.13914 20.3447 2.27979C20.204 2.42044 20.125 2.61121 20.125 2.81012V7.43587C20.125 7.63478 20.204 7.82555 20.3447 7.9662C20.4853 8.10685 20.6761 8.18587 20.875 8.18587C21.0739 8.18587 21.2647 8.10685 21.4053 7.9662C21.546 7.82555 21.625 7.63478 21.625 7.43587V2.81012ZM20.875 9.82499C20.6761 9.82499 20.4853 9.90401 20.3447 10.0447C20.204 10.1853 20.125 10.3761 20.125 10.575V11.8375C20.125 12.0364 20.204 12.2272 20.3447 12.3678C20.4853 12.5085 20.6761 12.5875 20.875 12.5875C21.0739 12.5875 21.2647 12.5085 21.4053 12.3678C21.546 12.2272 21.625 12.0364 21.625 11.8375V10.575C21.625 10.3761 21.546 10.1853 21.4053 10.0447C21.2647 9.90401 21.0739 9.82499 20.875 9.82499ZM15.375 5.31012C15.375 5.11121 15.296 4.92044 15.1553 4.77979C15.0147 4.63914 14.8239 4.56012 14.625 4.56012C14.4261 4.56012 14.2353 4.63914 14.0947 4.77979C13.954 4.92044 13.875 5.11121 13.875 5.31012V8.68587C13.875 8.88478 13.954 9.07555 14.0947 9.2162C14.2353 9.35685 14.4261 9.43587 14.625 9.43587C14.8239 9.43587 15.0147 9.35685 15.1553 9.2162C15.296 9.07555 15.375 8.88478 15.375 8.68587V5.31012ZM14.625 11.075C14.4261 11.075 14.2353 11.154 14.0947 11.2947C13.954 11.4353 13.875 11.6261 13.875 11.825V14.3375C13.875 14.5364 13.954 14.7272 14.0947 14.8678C14.2353 15.0085 14.4261 15.0875 14.625 15.0875C14.8239 15.0875 15.0147 15.0085 15.1553 14.8678C15.296 14.7272 15.375 14.5364 15.375 14.3375V11.825C15.375 11.6261 15.296 11.4353 15.1553 11.2947C15.0147 11.154 14.8239 11.075 14.625 11.075ZM27.875 5.31012C27.875 5.11121 27.796 4.92044 27.6553 4.77979C27.5147 4.63914 27.3239 4.56012 27.125 4.56012C26.9261 4.56012 26.7353 4.63914 26.5947 4.77979C26.454 4.92044 26.375 5.11121 26.375 5.31012V7.68587C26.375 7.88478 26.454 8.07555 26.5947 8.2162C26.7353 8.35685 26.9261 8.43587 27.125 8.43587C27.3239 8.43587 27.5147 8.35685 27.6553 8.2162C27.796 8.07555 27.875 7.88478 27.875 7.68587V5.31012ZM27.125 9.57499C26.9261 9.57499 26.7353 9.65401 26.5947 9.79466C26.454 9.93532 26.375 10.1261 26.375 10.325V14.3375C26.375 14.5364 26.454 14.7272 26.5947 14.8678C26.7353 15.0085 26.9261 15.0875 27.125 15.0875C27.3239 15.0875 27.5147 15.0085 27.6553 14.8678C27.796 14.7272 27.875 14.5364 27.875 14.3375V10.325C27.875 10.1261 27.796 9.93532 27.6553 9.79466C27.5147 9.65401 27.3239 9.57499 27.125 9.57499Z" fill="url(#paint4_linear_891_3195)"/>
<defs>
<linearGradient id="paint0_linear_891_3195" x1="10.3951" y1="74.7077" x2="47.7101" y2="34.2509" gradientUnits="userSpaceOnUse">
<stop stop-color="#329C67"/>
<stop offset="1" stop-color="#84FFC1"/>
</linearGradient>
<linearGradient id="paint1_linear_891_3195" x1="10.7869" y1="70.6323" x2="40.6339" y2="36.9735" gradientUnits="userSpaceOnUse">
<stop stop-color="#329C67"/>
<stop offset="1" stop-color="#84FFC1"/>
</linearGradient>
<linearGradient id="paint2_linear_891_3195" x1="12" y1="79" x2="66.0977" y2="7.25219" gradientUnits="userSpaceOnUse">
<stop stop-color="#329C67"/>
<stop offset="1" stop-color="#84FFC1"/>
</linearGradient>
<linearGradient id="paint3_linear_891_3195" x1="19.5" y1="64.5" x2="74.665" y2="28.7376" gradientUnits="userSpaceOnUse">
<stop stop-color="#329C67"/>
<stop offset="1" stop-color="#84FFC1"/>
</linearGradient>
<linearGradient id="paint4_linear_891_3195" x1="24.7179" y1="78.2902" x2="73.6345" y2="30.172" gradientUnits="userSpaceOnUse">
<stop stop-color="#329C67"/>
<stop offset="1" stop-color="#84FFC1"/>
</linearGradient>
</defs>
</svg>
